<mxfile host="app.diagrams.net" agent="Mozilla/5.0 (Windows NT 10.0; Win64; x64) AppleWebKit/537.36 (KHTML, like Gecko) Chrome/131.0.0.0 Safari/537.36" version="25.0.3">
  <diagram name="Страница — 1" id="faaBatfpq36x_SiJAaJY">
    <mxGraphModel dx="939" dy="1949" grid="1" gridSize="10" guides="1" tooltips="1" connect="1" arrows="1" fold="1" page="1" pageScale="1" pageWidth="827" pageHeight="1169" math="0" shadow="0">
      <root>
        <mxCell id="0" />
        <mxCell id="1" parent="0" />
        <mxCell id="wfg-xTvtEiKfB4EaiJIh-11" value="" style="edgeStyle=orthogonalEdgeStyle;rounded=0;orthogonalLoop=1;jettySize=auto;html=1;" edge="1" parent="1" source="wfg-xTvtEiKfB4EaiJIh-1" target="wfg-xTvtEiKfB4EaiJIh-5">
          <mxGeometry relative="1" as="geometry" />
        </mxCell>
        <mxCell id="wfg-xTvtEiKfB4EaiJIh-15" value="" style="edgeStyle=orthogonalEdgeStyle;rounded=0;orthogonalLoop=1;jettySize=auto;html=1;" edge="1" parent="1" source="wfg-xTvtEiKfB4EaiJIh-1" target="wfg-xTvtEiKfB4EaiJIh-14">
          <mxGeometry relative="1" as="geometry" />
        </mxCell>
        <mxCell id="wfg-xTvtEiKfB4EaiJIh-21" value="" style="edgeStyle=orthogonalEdgeStyle;rounded=0;orthogonalLoop=1;jettySize=auto;html=1;" edge="1" parent="1" source="wfg-xTvtEiKfB4EaiJIh-1" target="wfg-xTvtEiKfB4EaiJIh-20">
          <mxGeometry relative="1" as="geometry" />
        </mxCell>
        <mxCell id="wfg-xTvtEiKfB4EaiJIh-1" value="&lt;font style=&quot;vertical-align: inherit;&quot;&gt;&lt;font style=&quot;vertical-align: inherit;&quot;&gt;План расчета и времени поездки до заводика на жиге&lt;/font&gt;&lt;/font&gt;" style="ellipse;whiteSpace=wrap;html=1;aspect=fixed;" vertex="1" parent="1">
          <mxGeometry x="270" y="-40" width="180" height="180" as="geometry" />
        </mxCell>
        <mxCell id="wfg-xTvtEiKfB4EaiJIh-2" value="&lt;font style=&quot;vertical-align: inherit;&quot;&gt;&lt;font style=&quot;vertical-align: inherit;&quot;&gt;Средняя скорость 20КМ/Ч&lt;/font&gt;&lt;/font&gt;" style="rounded=0;whiteSpace=wrap;html=1;" vertex="1" parent="1">
          <mxGeometry x="170" y="-330" width="120" height="60" as="geometry" />
        </mxCell>
        <mxCell id="wfg-xTvtEiKfB4EaiJIh-3" value="&lt;font style=&quot;vertical-align: inherit;&quot;&gt;&lt;font style=&quot;vertical-align: inherit;&quot;&gt;День&lt;/font&gt;&lt;/font&gt;" style="rounded=0;whiteSpace=wrap;html=1;" vertex="1" parent="1">
          <mxGeometry x="400" y="-230" width="120" height="60" as="geometry" />
        </mxCell>
        <mxCell id="wfg-xTvtEiKfB4EaiJIh-17" value="" style="edgeStyle=orthogonalEdgeStyle;rounded=0;orthogonalLoop=1;jettySize=auto;html=1;" edge="1" parent="1" source="wfg-xTvtEiKfB4EaiJIh-4" target="wfg-xTvtEiKfB4EaiJIh-12">
          <mxGeometry relative="1" as="geometry" />
        </mxCell>
        <mxCell id="wfg-xTvtEiKfB4EaiJIh-4" value="&lt;font style=&quot;vertical-align: inherit;&quot;&gt;&lt;font style=&quot;vertical-align: inherit;&quot;&gt;Ночь&lt;/font&gt;&lt;/font&gt;" style="rounded=0;whiteSpace=wrap;html=1;" vertex="1" parent="1">
          <mxGeometry x="174" y="-230" width="120" height="60" as="geometry" />
        </mxCell>
        <mxCell id="wfg-xTvtEiKfB4EaiJIh-6" style="edgeStyle=orthogonalEdgeStyle;rounded=0;orthogonalLoop=1;jettySize=auto;html=1;" edge="1" parent="1" source="wfg-xTvtEiKfB4EaiJIh-5" target="wfg-xTvtEiKfB4EaiJIh-4">
          <mxGeometry relative="1" as="geometry" />
        </mxCell>
        <mxCell id="wfg-xTvtEiKfB4EaiJIh-7" style="edgeStyle=orthogonalEdgeStyle;rounded=0;orthogonalLoop=1;jettySize=auto;html=1;" edge="1" parent="1" source="wfg-xTvtEiKfB4EaiJIh-5" target="wfg-xTvtEiKfB4EaiJIh-3">
          <mxGeometry relative="1" as="geometry" />
        </mxCell>
        <mxCell id="wfg-xTvtEiKfB4EaiJIh-5" value="&lt;font style=&quot;vertical-align: inherit;&quot;&gt;&lt;font style=&quot;vertical-align: inherit;&quot;&gt;Время начала пооезлки&lt;/font&gt;&lt;/font&gt;" style="rounded=0;whiteSpace=wrap;html=1;" vertex="1" parent="1">
          <mxGeometry x="294" y="-140" width="120" height="60" as="geometry" />
        </mxCell>
        <mxCell id="wfg-xTvtEiKfB4EaiJIh-8" style="edgeStyle=orthogonalEdgeStyle;rounded=0;orthogonalLoop=1;jettySize=auto;html=1;entryX=0.575;entryY=0.967;entryDx=0;entryDy=0;entryPerimeter=0;" edge="1" parent="1" source="wfg-xTvtEiKfB4EaiJIh-4" target="wfg-xTvtEiKfB4EaiJIh-2">
          <mxGeometry relative="1" as="geometry" />
        </mxCell>
        <mxCell id="wfg-xTvtEiKfB4EaiJIh-10" value="" style="edgeStyle=orthogonalEdgeStyle;rounded=0;orthogonalLoop=1;jettySize=auto;html=1;" edge="1" parent="1" source="wfg-xTvtEiKfB4EaiJIh-9" target="wfg-xTvtEiKfB4EaiJIh-3">
          <mxGeometry relative="1" as="geometry" />
        </mxCell>
        <mxCell id="wfg-xTvtEiKfB4EaiJIh-9" value="&lt;font style=&quot;vertical-align: inherit;&quot;&gt;&lt;font style=&quot;vertical-align: inherit;&quot;&gt;СРедняя скорость&lt;/font&gt;&lt;/font&gt;&lt;div&gt;&lt;font style=&quot;vertical-align: inherit;&quot;&gt;&lt;font style=&quot;vertical-align: inherit;&quot;&gt;140КМ/Ч&lt;/font&gt;&lt;/font&gt;&lt;/div&gt;" style="rounded=0;whiteSpace=wrap;html=1;" vertex="1" parent="1">
          <mxGeometry x="400" y="-320" width="120" height="60" as="geometry" />
        </mxCell>
        <mxCell id="wfg-xTvtEiKfB4EaiJIh-12" value="&lt;font style=&quot;vertical-align: inherit;&quot;&gt;&lt;font style=&quot;vertical-align: inherit;&quot;&gt;Время суток до 6 утра и от 12 ночи&lt;/font&gt;&lt;/font&gt;" style="rounded=0;whiteSpace=wrap;html=1;" vertex="1" parent="1">
          <mxGeometry x="20" y="-230" width="120" height="60" as="geometry" />
        </mxCell>
        <mxCell id="wfg-xTvtEiKfB4EaiJIh-16" value="" style="edgeStyle=orthogonalEdgeStyle;rounded=0;orthogonalLoop=1;jettySize=auto;html=1;" edge="1" parent="1" source="wfg-xTvtEiKfB4EaiJIh-13" target="wfg-xTvtEiKfB4EaiJIh-14">
          <mxGeometry relative="1" as="geometry" />
        </mxCell>
        <mxCell id="wfg-xTvtEiKfB4EaiJIh-13" value="&lt;font style=&quot;vertical-align: inherit;&quot;&gt;&lt;font style=&quot;vertical-align: inherit;&quot;&gt;20 км&lt;/font&gt;&lt;/font&gt;" style="rounded=0;whiteSpace=wrap;html=1;" vertex="1" parent="1">
          <mxGeometry x="630" y="10" width="120" height="60" as="geometry" />
        </mxCell>
        <mxCell id="wfg-xTvtEiKfB4EaiJIh-14" value="&lt;font style=&quot;vertical-align: inherit;&quot;&gt;&lt;font style=&quot;vertical-align: inherit;&quot;&gt;Расстояние&lt;/font&gt;&lt;/font&gt;" style="rounded=0;whiteSpace=wrap;html=1;" vertex="1" parent="1">
          <mxGeometry x="480" y="10" width="120" height="60" as="geometry" />
        </mxCell>
        <mxCell id="wfg-xTvtEiKfB4EaiJIh-19" value="" style="edgeStyle=orthogonalEdgeStyle;rounded=0;orthogonalLoop=1;jettySize=auto;html=1;" edge="1" parent="1" source="wfg-xTvtEiKfB4EaiJIh-18" target="wfg-xTvtEiKfB4EaiJIh-3">
          <mxGeometry relative="1" as="geometry" />
        </mxCell>
        <mxCell id="wfg-xTvtEiKfB4EaiJIh-18" value="&lt;font style=&quot;vertical-align: inherit;&quot;&gt;&lt;font style=&quot;vertical-align: inherit;&quot;&gt;Время суток от 6 утра и до 12 ночи&lt;/font&gt;&lt;/font&gt;" style="rounded=0;whiteSpace=wrap;html=1;" vertex="1" parent="1">
          <mxGeometry x="550" y="-230" width="120" height="60" as="geometry" />
        </mxCell>
        <mxCell id="wfg-xTvtEiKfB4EaiJIh-20" value="&lt;font style=&quot;vertical-align: inherit;&quot;&gt;&lt;font style=&quot;vertical-align: inherit;&quot;&gt;СТОИМОСТЬ&lt;/font&gt;&lt;/font&gt;" style="whiteSpace=wrap;html=1;" vertex="1" parent="1">
          <mxGeometry x="280" y="170" width="120" height="60" as="geometry" />
        </mxCell>
        <mxCell id="wfg-xTvtEiKfB4EaiJIh-26" value="" style="edgeStyle=orthogonalEdgeStyle;rounded=0;orthogonalLoop=1;jettySize=auto;html=1;" edge="1" parent="1" source="wfg-xTvtEiKfB4EaiJIh-22" target="wfg-xTvtEiKfB4EaiJIh-24">
          <mxGeometry relative="1" as="geometry" />
        </mxCell>
        <mxCell id="wfg-xTvtEiKfB4EaiJIh-22" value="&lt;font style=&quot;vertical-align: inherit;&quot;&gt;&lt;font style=&quot;vertical-align: inherit;&quot;&gt;На ВОЛОДЕ - БЕСПЛАТНО&lt;/font&gt;&lt;/font&gt;" style="rounded=0;whiteSpace=wrap;html=1;" vertex="1" parent="1">
          <mxGeometry x="130" y="260" width="120" height="60" as="geometry" />
        </mxCell>
        <mxCell id="wfg-xTvtEiKfB4EaiJIh-25" value="" style="edgeStyle=orthogonalEdgeStyle;rounded=0;orthogonalLoop=1;jettySize=auto;html=1;" edge="1" parent="1" source="wfg-xTvtEiKfB4EaiJIh-24" target="wfg-xTvtEiKfB4EaiJIh-20">
          <mxGeometry relative="1" as="geometry">
            <mxPoint x="470" y="300" as="targetPoint" />
            <Array as="points">
              <mxPoint x="435" y="290" />
              <mxPoint x="435" y="301" />
              <mxPoint x="340" y="301" />
            </Array>
          </mxGeometry>
        </mxCell>
        <mxCell id="wfg-xTvtEiKfB4EaiJIh-24" value="&lt;font style=&quot;vertical-align: inherit;&quot;&gt;&lt;font style=&quot;vertical-align: inherit;&quot;&gt;НА МАШИНЕ СВОЕЙ 200 рублкй&lt;/font&gt;&lt;/font&gt;" style="rounded=0;whiteSpace=wrap;html=1;" vertex="1" parent="1">
          <mxGeometry x="280" y="260" width="120" height="60" as="geometry" />
        </mxCell>
        <mxCell id="wfg-xTvtEiKfB4EaiJIh-27" value="&lt;font style=&quot;vertical-align: inherit;&quot;&gt;&lt;font style=&quot;vertical-align: inherit;&quot;&gt;ЛИЧНЫЙ ИДЕНТИФИКАТОР - 228&lt;/font&gt;&lt;/font&gt;&lt;div&gt;&lt;font style=&quot;vertical-align: inherit;&quot;&gt;&lt;font style=&quot;vertical-align: inherit;&quot;&gt;ОР- ДОЕХАТЬ ДО ЗАВОДА&lt;/font&gt;&lt;/font&gt;&lt;/div&gt;&lt;div&gt;&lt;font style=&quot;vertical-align: inherit;&quot;&gt;&lt;font style=&quot;vertical-align: inherit;&quot;&gt;&lt;font style=&quot;vertical-align: inherit;&quot;&gt;&lt;font style=&quot;vertical-align: inherit;&quot;&gt;ЗАГОЛОВОК - РАСЧЕТ ВРЕМЕНИ И ДЕНЕГ ДЛЯ ПОЕЗДКИ&lt;/font&gt;&lt;/font&gt;&lt;/font&gt;&lt;/font&gt;&lt;/div&gt;&lt;div&gt;&lt;font style=&quot;vertical-align: inherit;&quot;&gt;&lt;font style=&quot;vertical-align: inherit;&quot;&gt;ШАГИ -&amp;nbsp;&lt;/font&gt;&lt;/font&gt;&lt;/div&gt;&lt;div&gt;&lt;font style=&quot;vertical-align: inherit;&quot;&gt;&lt;font style=&quot;vertical-align: inherit;&quot;&gt;&lt;font style=&quot;vertical-align: inherit;&quot;&gt;&lt;font style=&quot;vertical-align: inherit;&quot;&gt;1 - узнать время начала поездки&lt;/font&gt;&lt;/font&gt;&lt;/font&gt;&lt;/font&gt;&lt;/div&gt;&lt;div&gt;&lt;font style=&quot;vertical-align: inherit;&quot;&gt;&lt;font style=&quot;vertical-align: inherit;&quot;&gt;&lt;font style=&quot;vertical-align: inherit;&quot;&gt;&lt;font style=&quot;vertical-align: inherit;&quot;&gt;&lt;font style=&quot;vertical-align: inherit;&quot;&gt;&lt;font style=&quot;vertical-align: inherit;&quot;&gt;2 - куда едем&lt;/font&gt;&lt;/font&gt;&lt;/font&gt;&lt;/font&gt;&lt;/font&gt;&lt;/font&gt;&lt;/div&gt;&lt;div&gt;&lt;font style=&quot;vertical-align: inherit;&quot;&gt;&lt;font style=&quot;vertical-align: inherit;&quot;&gt;&lt;font style=&quot;vertical-align: inherit;&quot;&gt;&lt;font style=&quot;vertical-align: inherit;&quot;&gt;&lt;font style=&quot;vertical-align: inherit;&quot;&gt;&lt;font style=&quot;vertical-align: inherit;&quot;&gt;&lt;font style=&quot;vertical-align: inherit;&quot;&gt;&lt;font style=&quot;vertical-align: inherit;&quot;&gt;3 - на чем едем&lt;/font&gt;&lt;/font&gt;&lt;/font&gt;&lt;/font&gt;&lt;/font&gt;&lt;/font&gt;&lt;/font&gt;&lt;/font&gt;&lt;/div&gt;" style="shape=hexagon;perimeter=hexagonPerimeter2;whiteSpace=wrap;html=1;fixedSize=1;" vertex="1" parent="1">
          <mxGeometry x="10" y="-840" width="460" height="380" as="geometry" />
        </mxCell>
      </root>
    </mxGraphModel>
  </diagram>
</mxfile>
